<svg width="19" height="25" viewBox="0 0 19 25" fill="none" xmlns="http://www.w3.org/2000/svg">
<path d="M18.4453 24.4515H16.4453V19.4085C16.4445 18.6245 16.1327 17.8729 15.5784 17.3185C15.024 16.7641 14.2723 16.4523 13.4883 16.4515H5.40231C4.6183 16.4523 3.86664 16.7641 3.31227 17.3185C2.7579 17.8729 2.4461 18.6245 2.44531 19.4085V24.4515H0.445312V19.4085C0.446893 18.0943 0.969663 16.8344 1.89893 15.9051C2.8282 14.9759 4.08811 14.4531 5.40231 14.4515H13.4883C14.8025 14.4531 16.0624 14.9759 16.9917 15.9051C17.921 16.8344 18.4437 18.0943 18.4453 19.4085V24.4515Z" fill="#253D4E"/>
<path d="M9.44527 12.4515C8.25867 12.4515 7.09857 12.0996 6.11189 11.4403C5.12519 10.781 4.35616 9.844 3.90203 8.74764C3.44791 7.65128 3.32909 6.44488 3.5606 5.281C3.79211 4.11711 4.36355 3.04801 5.20267 2.2089C6.04178 1.36978 7.11087 0.79834 8.27477 0.566829C9.43867 0.335318 10.6451 0.454138 11.7414 0.908264C12.8378 1.36239 13.7749 2.13142 14.4342 3.11812C15.0934 4.10481 15.4453 5.26485 15.4453 6.45154C15.4437 8.04235 14.8111 9.56755 13.6862 10.6924C12.5614 11.8173 11.0362 12.4499 9.44527 12.4515ZM9.44527 2.45154C8.65417 2.45154 7.88087 2.68613 7.22307 3.12566C6.56523 3.56519 6.05254 4.1899 5.74979 4.92081C5.44704 5.65171 5.36783 6.45598 5.52217 7.2319C5.67651 8.00782 6.05747 8.72056 6.61688 9.27997C7.17627 9.83938 7.88907 10.2203 8.66497 10.3747C9.44087 10.529 10.2452 10.4498 10.9761 10.147C11.707 9.84431 12.3317 9.33162 12.7712 8.67382C13.2107 8.01602 13.4453 7.24266 13.4453 6.45154C13.4453 5.39067 13.0239 4.37326 12.2738 3.62311C11.5236 2.87297 10.5062 2.45154 9.44527 2.45154Z" fill="#253D4E"/>
</svg>
