<svg width="25" height="26" viewBox="0 0 25 26" fill="none" xmlns="http://www.w3.org/2000/svg">
<path d="M24.4941 3.45154H4.73614L4.69414 3.10054C4.60819 2.37095 4.25753 1.69827 3.70863 1.21001C3.15974 0.721761 2.45077 0.45188 1.71614 0.451538H0.494141V2.45154H1.71614C1.96107 2.45157 2.19748 2.54149 2.38051 2.70425C2.56355 2.86701 2.68048 3.09128 2.70914 3.33454L4.29414 16.8025C4.38009 17.5321 4.73076 18.2048 5.27965 18.693C5.82855 19.1813 6.53751 19.4512 7.27214 19.4515H20.4941V17.4515H7.27214C7.02705 17.4515 6.79052 17.3614 6.60747 17.1984C6.42441 17.0355 6.30757 16.8109 6.27914 16.5675L6.14814 15.4515H22.3301L24.4941 3.45154ZM20.6581 13.4515H5.91314L4.97214 5.45154H22.1011L20.6581 13.4515Z" fill="#253D4E"/>
<path d="M7.49414 24.4515C8.59871 24.4515 9.49414 23.5561 9.49414 22.4515C9.49414 21.3469 8.59871 20.4515 7.49414 20.4515C6.38957 20.4515 5.49414 21.3469 5.49414 22.4515C5.49414 23.5561 6.38957 24.4515 7.49414 24.4515Z" fill="#253D4E"/>
<path d="M17.4941 24.4515C18.5987 24.4515 19.4941 23.5561 19.4941 22.4515C19.4941 21.3469 18.5987 20.4515 17.4941 20.4515C16.3896 20.4515 15.4941 21.3469 15.4941 22.4515C15.4941 23.5561 16.3896 24.4515 17.4941 24.4515Z" fill="#253D4E"/>
</svg>
