<svg width="26" height="26" viewBox="0 0 26 26" fill="none" xmlns="http://www.w3.org/2000/svg">
<path d="M19.1161 1.36853C17.9901 1.38604 16.8886 1.70038 15.9229 2.2798C14.9572 2.85922 14.1615 3.6832 13.6161 4.66853C13.0708 3.6832 12.2751 2.85922 11.3094 2.2798C10.3437 1.70038 9.24222 1.38604 8.11617 1.36853C6.32111 1.44652 4.62987 2.23178 3.41195 3.55276C2.19403 4.87374 1.54842 6.62305 1.61617 8.41853C1.61617 15.1935 12.5721 23.0185 13.0381 23.3505L13.6161 23.7595L14.1941 23.3505C14.6601 23.0205 25.6161 15.1935 25.6161 8.41853C25.6839 6.62305 25.0383 4.87374 23.8204 3.55276C22.6024 2.23178 20.9112 1.44652 19.1161 1.36853ZM13.6161 21.2975C10.3632 18.8675 3.61617 12.8975 3.61617 8.41853C3.54781 7.15324 3.98254 5.91226 4.82553 4.96623C5.66853 4.0202 6.8514 3.44588 8.11617 3.36853C9.38094 3.44588 10.5638 4.0202 11.4068 4.96623C12.2498 5.91226 12.6845 7.15324 12.6161 8.41853H14.6161C14.5478 7.15324 14.9825 5.91226 15.8255 4.96623C16.6685 4.0202 17.8514 3.44588 19.1161 3.36853C20.3809 3.44588 21.5638 4.0202 22.4068 4.96623C23.2498 5.91226 23.6845 7.15324 23.6161 8.41853C23.6161 12.8995 16.8691 18.8675 13.6161 21.2975Z" fill="#253D4E"/>
</svg>
