<svg width="27" height="27" viewBox="0 0 27 27" fill="none" xmlns="http://www.w3.org/2000/svg">
<path d="M20.5584 8.47185L21.9753 7.64532C18.9097 2.37889 12.3019 0.367006 6.82157 3.03143V1.01514H5.18164V5.93493H10.1014V4.295H8.00642C12.6452 2.32723 18.0235 4.11696 20.5584 8.47185Z" fill="#253D4E"/>
<path d="M5.59093 21.2485C1.78901 18.1608 0.788344 12.771 3.22861 8.52437L1.80679 7.70441C-0.976531 12.5512 0.0766144 18.6919 4.31588 22.3342H2.31107V23.9742H7.23086V19.0544H5.59093V21.2485Z" fill="#253D4E"/>
<path d="M22.7801 11.3205L19.3018 14.7996L20.4612 15.959L21.8551 14.5651C21.3084 19.6453 17.0275 23.5008 11.918 23.515V25.1549C18.0057 25.1389 23.0559 20.4407 23.5106 14.3699L25.0997 15.959L26.2592 14.7996L22.7801 11.3205Z" fill="#253D4E"/>
</svg>
